<?xml version="1.0" standalone="no"?>
<!DOCTYPE svg PUBLIC "-//W3C//DTD SVG 20010904//EN"
 "http://www.w3.org/TR/2001/REC-SVG-20010904/DTD/svg10.dtd">
<svg version="1.0" xmlns="http://www.w3.org/2000/svg"
 width="236.000000pt" height="213.000000pt" viewBox="0 0 236.000000 213.000000"
 preserveAspectRatio="xMidYMid meet">
<metadata>
Created by potrace 1.16, written by Peter Selinger 2001-2019
</metadata>
<g transform="translate(0.000000,213.000000) scale(0.100000,-0.100000)"
fill="#000000" stroke="none">
<path d="M1040 2014 c-326 -39 -571 -145 -750 -324 -90 -89 -139 -166 -175
-275 -25 -72 -27 -90 -23 -195 5 -127 22 -190 80 -289 42 -71 185 -215 263
-266 33 -21 61 -39 63 -41 6 -4 -57 -152 -81 -191 -14 -22 -59 -78 -101 -126
-77 -88 -84 -103 -66 -136 15 -29 35 -32 120 -15 200 38 433 145 586 271 l41
33 204 4 c161 3 223 8 294 24 247 57 440 157 581 300 276 280 265 656 -28 927
-145 135 -342 229 -578 276 -92 18 -352 32 -430 23z m452 -187 c287 -76 493
-218 585 -403 29 -60 36 -86 40 -156 10 -150 -40 -261 -171 -385 -203 -194
-542 -296 -876 -266 l-115 11 -70 -57 c-38 -32 -90 -71 -115 -88 -56 -38 -190
-106 -197 -100 -2 3 7 28 21 55 27 52 88 251 81 262 -2 3 -45 30 -96 60 -169
99 -278 224 -321 363 -68 225 69 462 352 606 197 101 342 132 600 127 160 -3
198 -7 282 -29z"/>
</g>
</svg>
