<?xml version="1.0" standalone="no"?>
<!DOCTYPE svg PUBLIC "-//W3C//DTD SVG 20010904//EN"
 "http://www.w3.org/TR/2001/REC-SVG-20010904/DTD/svg10.dtd">
<svg version="1.0" xmlns="http://www.w3.org/2000/svg"
 width="225.000000pt" height="225.000000pt" viewBox="0 0 225.000000 225.000000"
 preserveAspectRatio="xMidYMid meet">
<metadata>
Created by potrace 1.16, written by Peter Selinger 2001-2019
</metadata>
<g transform="translate(0.000000,225.000000) scale(0.100000,-0.100000)"
fill="#000000" stroke="none">
<path d="M1168 1889 c-21 -11 -38 -20 -38 -22 -1 -38 -63 -325 -76 -348 -43
-85 -158 -222 -227 -271 l-27 -20 -31 26 c-31 26 -31 26 -225 26 l-194 0 -32
-29 -33 -29 -3 -398 c-2 -287 1 -406 9 -427 23 -54 36 -57 252 -57 123 0 206
4 219 11 11 6 26 26 34 45 16 39 8 40 139 -22 l60 -29 312 -3 c297 -3 314 -2
352 17 53 28 92 81 98 135 4 34 11 47 33 60 16 9 38 32 51 52 19 31 21 45 16
98 -6 60 -5 65 24 92 37 35 51 82 38 129 -5 19 -14 37 -20 41 -7 4 -1 17 15
33 85 89 62 212 -49 262 -35 16 -68 19 -254 19 -193 0 -213 2 -207 16 4 9 13
55 21 102 36 205 2 434 -73 492 -34 27 -132 27 -184 -1z m149 -136 c38 -124
12 -473 -34 -473 -21 0 -53 -29 -53 -48 0 -9 7 -24 17 -34 15 -17 37 -18 273
-18 265 0 312 -6 330 -40 19 -35 10 -61 -32 -100 l-43 -39 23 -43 c34 -62 27
-95 -25 -131 -47 -31 -50 -41 -27 -106 13 -39 13 -46 -2 -68 -9 -14 -34 -32
-55 -41 -21 -8 -39 -20 -40 -26 0 -6 -1 -36 -2 -66 -3 -82 1 -81 -337 -78
l-285 3 -107 50 -108 50 0 280 1 280 42 32 c65 49 184 171 233 239 63 88 89
153 114 289 28 155 24 145 64 145 34 0 36 -2 53 -57z m-617 -943 l0 -370 -157
0 -158 0 3 370 2 370 155 0 155 0 0 -370z"/>
</g>
</svg>
