<?xml version="1.0" standalone="no"?>
<!DOCTYPE svg PUBLIC "-//W3C//DTD SVG 20010904//EN"
 "http://www.w3.org/TR/2001/REC-SVG-20010904/DTD/svg10.dtd">
<svg version="1.0" xmlns="http://www.w3.org/2000/svg"
 width="225.000000pt" height="225.000000pt" viewBox="0 0 225.000000 225.000000"
 preserveAspectRatio="xMidYMid meet">
<metadata>
Created by potrace 1.16, written by Peter Selinger 2001-2019
</metadata>
<g transform="translate(0.000000,225.000000) scale(0.100000,-0.100000)"
class="svg-color" stroke="none">
<path d="M903 1876 c-92 -30 -166 -97 -210 -191 -26 -56 -28 -71 -31 -205 l-3
-146 -37 -19 c-20 -11 -47 -36 -60 -54 l-23 -35 3 -362 c3 -349 4 -364 24
-391 46 -63 45 -63 517 -63 469 0 470 0 520 59 l27 33 0 366 c0 415 0 413 -79
448 l-40 17 -3 146 c-3 134 -5 151 -30 203 -35 76 -98 142 -167 175 -53 27
-64 28 -211 30 -108 2 -168 -2 -197 -11z m360 -125 c56 -27 104 -85 123 -148
8 -28 14 -91 14 -160 l0 -113 -316 0 -316 0 4 133 c3 118 6 138 28 181 53 104
131 138 305 133 91 -3 119 -7 158 -26z m-88 -651 c84 -52 84 -181 0 -236 -24
-16 -25 -21 -25 -110 0 -82 -2 -95 -19 -104 -29 -15 -49 -12 -71 10 -17 17
-20 33 -20 100 l0 81 -39 37 c-41 39 -59 90 -47 136 8 31 53 85 80 96 39 16
107 11 141 -10z"/>
</g>
</svg>
