<?xml version="1.0" standalone="no"?>
<!DOCTYPE svg PUBLIC "-//W3C//DTD SVG 20010904//EN"
 "http://www.w3.org/TR/2001/REC-SVG-20010904/DTD/svg10.dtd">
<svg version="1.0" xmlns="http://www.w3.org/2000/svg"
 width="225.000000pt" height="225.000000pt" viewBox="0 0 225.000000 225.000000"
 preserveAspectRatio="xMidYMid meet">
<metadata>
Created by potrace 1.16, written by Peter Selinger 2001-2019
</metadata>
<g transform="translate(0.000000,225.000000) scale(0.100000,-0.100000)"
fill="#000000" stroke="none">
<path d="M1245 1995 c-24 -24 -25 -28 -25 -184 l0 -160 -42 -11 c-373 -92
-630 -245 -790 -470 -126 -177 -226 -470 -245 -720 -6 -75 -5 -79 20 -104 28
-28 73 -34 107 -16 11 6 35 34 55 64 79 119 254 260 417 335 139 64 347 121
444 121 l34 0 0 -150 c0 -147 1 -152 25 -175 16 -17 35 -25 60 -25 41 0 19
-18 375 314 417 390 430 403 430 445 0 20 -6 43 -13 51 -11 15 -608 576 -710
668 -57 51 -103 57 -142 17z m404 -505 c133 -123 241 -227 241 -230 0 -7 -478
-454 -491 -458 -5 -2 -9 36 -9 88 0 83 -2 93 -25 115 -22 23 -32 25 -109 25
-268 0 -627 -124 -834 -288 -24 -19 -45 -32 -48 -30 -6 7 53 173 84 233 135
269 390 441 776 524 152 33 156 37 156 166 0 50 4 85 9 83 6 -1 118 -104 250
-228z"/>
</g>
</svg>
